<svg width="568" height="33" viewBox="0 0 568 33" fill="none" xmlns="http://www.w3.org/2000/svg">
<rect y="15.5" width="243.5" height="2" fill="#666666" fill-opacity="0.25"/>
<path d="M276.508 24.432C275.212 24.432 274.02 24.208 272.932 23.76C271.86 23.312 270.924 22.696 270.124 21.912C269.34 21.112 268.724 20.168 268.276 19.08C267.844 17.976 267.628 16.784 267.628 15.504C267.628 14.224 267.844 13.04 268.276 11.952C268.724 10.848 269.34 9.904 270.124 9.12C270.924 8.32 271.86 7.696 272.932 7.248C274.02 6.8 275.212 6.576 276.508 6.576C277.804 6.576 278.988 6.8 280.06 7.248C281.148 7.696 282.084 8.32 282.868 9.12C283.668 9.904 284.284 10.848 284.716 11.952C285.164 13.04 285.388 14.224 285.388 15.504C285.388 16.784 285.164 17.976 284.716 19.08C284.284 20.168 283.668 21.112 282.868 21.912C282.084 22.696 281.148 23.312 280.06 23.76C278.988 24.208 277.804 24.432 276.508 24.432ZM276.508 22.56C277.5 22.56 278.404 22.376 279.22 22.008C280.052 21.64 280.764 21.136 281.356 20.496C281.948 19.856 282.404 19.112 282.724 18.264C283.06 17.4 283.228 16.48 283.228 15.504C283.228 14.528 283.06 13.616 282.724 12.768C282.404 11.904 281.948 11.152 281.356 10.512C280.764 9.872 280.052 9.368 279.22 9C278.404 8.632 277.5 8.448 276.508 8.448C275.516 8.448 274.604 8.632 273.772 9C272.956 9.368 272.252 9.872 271.66 10.512C271.068 11.152 270.604 11.904 270.268 12.768C269.948 13.616 269.788 14.528 269.788 15.504C269.788 16.48 269.948 17.4 270.268 18.264C270.604 19.112 271.068 19.856 271.66 20.496C272.252 21.136 272.956 21.64 273.772 22.008C274.604 22.376 275.516 22.56 276.508 22.56ZM288.628 7.008H292.972C293.788 7.008 294.596 7.056 295.396 7.152C296.212 7.248 296.94 7.456 297.58 7.776C298.22 8.096 298.74 8.568 299.14 9.192C299.54 9.8 299.74 10.632 299.74 11.688C299.74 12.936 299.364 13.944 298.612 14.712C297.86 15.48 296.82 15.968 295.492 16.176L300.316 24H297.844L293.236 16.368H290.644V24H288.628V7.008ZM290.644 14.496H292.444C293.004 14.496 293.58 14.48 294.172 14.448C294.78 14.416 295.332 14.312 295.828 14.136C296.34 13.96 296.756 13.688 297.076 13.32C297.412 12.936 297.58 12.392 297.58 11.688C297.58 11.08 297.46 10.592 297.22 10.224C296.98 9.856 296.66 9.576 296.26 9.384C295.876 9.176 295.436 9.04 294.94 8.976C294.46 8.912 293.972 8.88 293.476 8.88H290.644V14.496Z" fill="#666666"/>
<rect x="324.5" y="15.5" width="243.5" height="2" fill="#666666" fill-opacity="0.25"/>
</svg>
